<?xml version="1.0" encoding="UTF-8"?>
<svg id="Layer_2" data-name="Layer 2" xmlns="http://www.w3.org/2000/svg" xmlns:xlink="http://www.w3.org/1999/xlink" viewBox="0 0 309.07 442.21">
  <defs>
    <style>
      .cls-1 {
        fill: #fff;
        opacity: .3;
      }

      .cls-2 {
        fill: #4f7190;
        stroke: #4f7190;
        stroke-linecap: round;
        stroke-linejoin: round;
        stroke-width: 88px;
      }

      .cls-3 {
        fill: url(#linear-gradient);
      }
    </style>
    <linearGradient id="linear-gradient" x1="46.22" y1="221.1" x2="267.29" y2="221.1" gradientUnits="userSpaceOnUse">
      <stop offset=".29" stop-color="#1aad94"/>
      <stop offset=".69" stop-color="#f2c952"/>
    </linearGradient>
  </defs>
  <g id="Layer_1-2" data-name="Layer 1">
    <g>
      <path class="cls-2" d="M219.59,66.52l-46.25,53.24c-6.71,7.72-13.07,16.64-18.8,26.09-5.73-9.44-12.1-18.37-18.8-26.09l-46.25-53.24c-25.12-28.91-45.48-30.15-45.48-2.76v161.25c0,27.39,20.36,73.03,45.48,101.95l46.25,53.23c6.22,7.15,12.14,12.61,17.54,16.35v1.67c.42-.25.84-.55,1.27-.82.42.28.85.57,1.27.82v-1.67c5.39-3.75,11.32-9.2,17.54-16.35l46.25-53.23c25.12-28.92,45.48-74.56,45.48-101.95V63.76c0-27.39-20.36-26.15-45.48,2.76Z"/>
      <path class="cls-3" d="M221.81,66.52l-46.25,53.24c-6.71,7.72-13.07,16.64-18.8,26.09-5.73-9.44-12.1-18.37-18.8-26.09l-46.25-53.24c-25.12-28.91-45.48-30.15-45.48-2.76v161.25c0,27.39,20.36,73.03,45.48,101.95l46.25,53.23c6.22,7.15,12.14,12.61,17.54,16.35v1.67c.42-.25.84-.55,1.27-.82.42.28.85.57,1.27.82v-1.67c5.39-3.75,11.32-9.2,17.54-16.35l46.25-53.23c25.12-28.92,45.48-74.56,45.48-101.95V63.76c0-27.39-20.36-26.15-45.48,2.76Z"/>
      <path class="cls-1" d="M267.13,229.19c.1-1.43.16-2.84.16-4.18V63.76c0-27.39-20.36-26.15-45.48,2.76l-46.25,53.24c-6.71,7.72-13.07,16.64-18.8,26.09-5.73-9.44-12.1-18.37-18.8-26.09l-46.25-53.24c-25.12-28.91-45.48-30.15-45.48-2.76v90.18c8.05-.68,16.19-1.03,24.41-1.03,74.89,0,143.46,28.7,196.5,76.29Z"/>
    </g>
  </g>
</svg>